<svg width="28.000000" height="28.000000" viewBox="0 0 28 28" fill="none" xmlns="http://www.w3.org/2000/svg" xmlns:xlink="http://www.w3.org/1999/xlink">
	<desc>
			Created with Pixso.
	</desc>
	<defs/>
	<path id="Vector 59" d="M2.33398 14L14.6875 14" stroke="#FFFFFF" stroke-opacity="1.000000" stroke-width="1.647059" stroke-linejoin="round" stroke-linecap="round"/>
	<path id="Polygon 4" d="M22.2773 16.541L19.7676 18.4236C17.8164 19.8877 16.8398 20.6199 16.0273 20.4189C15.7734 20.3562 15.5371 20.2378 15.334 20.0723C14.6855 19.5427 14.6855 18.3225 14.6855 15.8823L14.6855 12.1177C14.6855 9.67725 14.6855 8.45703 15.334 7.92749C15.5371 7.76196 15.7734 7.64355 16.0273 7.58081C16.8398 7.38013 17.8164 8.1123 19.7676 9.57642L22.2773 11.4587C23.6484 12.4863 24.332 13 24.459 13.6746C24.5 13.8896 24.5 14.1104 24.459 14.3254C24.332 15 23.6484 15.5137 22.2773 16.541ZM21.2891 15.2234L18.7793 17.1057Q17.8789 17.7815 17.5156 18.0425Q16.9746 18.4299 16.6465 18.6199Q16.5273 18.688 16.4375 18.7324Q16.418 18.6333 16.4023 18.498Q16.3574 18.1213 16.3418 17.4563Q16.332 17.0083 16.332 15.8823L16.332 12.1177Q16.332 10.9917 16.3418 10.5437Q16.3574 9.87866 16.4023 9.50195Q16.418 9.3667 16.4375 9.26733Q16.5273 9.31201 16.6465 9.38013Q16.9746 9.57007 17.5156 9.95752Q17.8789 10.2185 18.7793 10.894L21.2891 12.7764Q21.918 13.2471 22.1621 13.4392Q22.5137 13.7158 22.6992 13.8918Q22.7637 13.9531 22.8066 14Q22.7637 14.0469 22.6992 14.1082Q22.5137 14.2842 22.1621 14.5608Q21.918 14.7527 21.2891 15.2234Z" fill="#FFFFFF" fill-opacity="1.000000" fill-rule="evenodd"/>
</svg>
