<svg xmlns="http://www.w3.org/2000/svg" width="87" height="65" viewBox="0 0 87 65" fill="none">
                        <path d="M86.0661 0H0V54.647H86.0661V0Z" fill="#0F303F" />
                        <path d="M82.3603 3.53113H3.70703V48.6436H82.3603V3.53113Z" fill="white" />
                        <path d="M61.8515 3.53113H3.70703V48.6583H15.305L61.8515 3.53113Z" fill="#E8E8E8" />
                        <path d="M50.7939 54.6466H35.2578V59.5904H50.7939V54.6466Z" fill="black" />
                        <path d="M54.1448 59.5902H31.9062V64.7989H54.1448V59.5902Z" fill="#0F303F" />
                        <path d="M24.6167 19.6577C24.8311 19.5356 25.0775 19.4744 25.3271 19.4811C25.5192 19.4816 25.7089 19.5217 25.8831 19.5988C26.0505 19.6691 26.2025 19.769 26.331 19.8931C26.4547 20.0119 26.5542 20.1516 26.6244 20.3051C26.7016 20.4774 26.7435 20.6622 26.7479 20.8495C26.7504 21.0882 26.6859 21.3232 26.561 21.5302C26.4361 21.7371 26.2553 21.9085 26.0375 22.0266L17.7753 26.7203L26.0375 31.4581C26.2541 31.5738 26.4342 31.7426 26.5592 31.947C26.6841 32.1514 26.7493 32.384 26.7479 32.6205C26.7534 32.8011 26.7191 32.9809 26.6473 33.1481C26.5755 33.3154 26.4677 33.4664 26.331 33.5916C26.0623 33.8402 25.7016 33.9777 25.3271 33.9742C25.0775 33.9809 24.8311 33.9197 24.6167 33.7976L14.3469 27.9121C14.1198 27.7943 13.9307 27.6197 13.8001 27.4071C13.6695 27.1944 13.6022 26.9519 13.6056 26.7056C13.6109 26.4649 13.6821 26.2297 13.8121 26.0232C13.9421 25.8168 14.1265 25.6462 14.3469 25.5285L24.6167 19.6577Z" fill="black" />
                        <path d="M48.0145 17.1857L39.6442 37.1229C39.5221 37.3548 39.3377 37.5518 39.1099 37.6939C38.8821 37.836 38.6189 37.9182 38.347 37.9321C38.1572 37.9383 37.9683 37.9061 37.7926 37.8376C37.617 37.7691 37.4585 37.6659 37.3277 37.5349C37.1964 37.4096 37.0931 37.2603 37.0241 37.0959C36.9551 36.9315 36.9218 36.7555 36.9262 36.5785C36.9316 36.3865 36.9734 36.1971 37.0497 36.0194L45.42 16.0674C45.5039 15.9142 45.6134 15.7751 45.7443 15.6555C45.9444 15.4762 46.1947 15.3561 46.465 15.3095C46.7352 15.263 47.0138 15.2921 47.2671 15.3933C47.5204 15.4945 47.7374 15.6634 47.892 15.8797C48.0465 16.096 48.132 16.3503 48.1381 16.6119C48.1377 16.8091 48.0957 17.0042 48.0145 17.1857Z" fill="black" />
                        <path d="M70.5151 25.5427C70.7394 25.6574 70.9277 25.8269 71.0606 26.0337C71.1936 26.2406 71.2665 26.4774 71.2718 26.7198C71.2754 26.968 71.2066 27.2123 71.073 27.4253C70.9393 27.6384 70.7462 27.8119 70.5151 27.9264L60.2607 33.8119C60.0463 33.9339 59.7999 33.9952 59.5503 33.9885C59.3647 33.991 59.1805 33.9585 59.0082 33.8928C58.8359 33.8272 58.679 33.7297 58.5465 33.6059C58.4097 33.4807 58.3019 33.3296 58.2301 33.1624C58.1583 32.9951 58.124 32.8154 58.1295 32.6348C58.1281 32.3983 58.1933 32.1657 58.3182 31.9613C58.4432 31.7569 58.6233 31.588 58.8399 31.4724L67.1021 26.7346L58.8399 22.0409C58.6221 21.9228 58.4414 21.7514 58.3165 21.5445C58.1916 21.3375 58.127 21.1025 58.1295 20.8638C58.1266 20.6772 58.1634 20.492 58.2376 20.3193C58.3148 20.166 58.4193 20.0267 58.5465 19.9074C58.6722 19.7802 58.8249 19.6799 58.9943 19.6131C59.1685 19.536 59.3582 19.4958 59.5503 19.4954C59.7999 19.4887 60.0463 19.5499 60.2607 19.6719L70.5151 25.5427Z" fill="black" />
                    </svg>