<svg xmlns="http://www.w3.org/2000/svg" width="70" height="78" viewBox="0 0 70 78" fill="none">
                        <path d="M62.608 64.7432H0V77.8576H62.608V64.7432Z" fill="#FDC00F" />
                        <path d="M19.442 64.7432H6.45898V77.8576H19.442V64.7432Z" fill="#FFF2CF" />
                        <path d="M23.9803 64.7432H21.3145V77.8576H23.9803V64.7432Z" fill="#FFF2CF" />
                        <path d="M69.272 51.6292H6.66406V64.7436H69.272V51.6292Z" fill="#16B6C6" />
                        <path d="M26.106 51.6292H13.123V64.7436H26.106V51.6292Z" fill="#10A37F" />
                        <path d="M30.6443 51.6292H27.9785V64.7436H30.6443V51.6292Z" fill="#10A37F" />
                        <path d="M66.8892 38.5269H4.28125V51.6413H66.8892V38.5269Z" fill="#184F78" />
                        <path d="M23.7095 38.5269H10.7266V51.6413H23.7095V38.5269Z" fill="#D1DCE4" />
                        <path d="M28.2478 38.5269H25.582V51.6413H28.2478V38.5269Z" fill="#D1DCE4" />
                        <path d="M45.6653 8.13358C42.0511 11.1863 36.0018 11.0275 36.0018 11.0275C36.0018 11.0275 35.8095 5.93563 39.4237 2.89512C43.038 -0.145386 49.1001 0.00113219 49.1001 0.00113219C49.1001 0.00113219 49.2924 5.09307 45.6653 8.13358Z" fill="#184F78" />
                        <path d="M47.5356 1.33264C47.5356 1.33264 47.0229 1.95539 46.1771 2.81015C45.3312 3.66491 44.1393 4.76389 42.8961 5.81403C41.6529 6.86416 40.3328 7.85324 39.3203 8.56147C38.7554 8.9678 38.1693 9.34681 37.5645 9.69708C37.5645 9.69708 38.0771 9.08654 38.923 8.21957C39.7689 7.3526 40.9608 6.26582 42.204 5.22789C43.4472 4.18997 44.7673 3.17647 45.7797 2.46824C46.7922 1.76001 47.5356 1.33264 47.5356 1.33264Z" fill="#467293" />
                        <path d="M35.9882 10.8444C21.8902 7.38875 15.482 16.2294 18.0453 25.8516C20.0831 33.4223 27.1961 40.2726 35.9882 38.1601C44.7418 40.2726 51.8548 33.4223 53.9311 25.8516C56.4303 16.205 50.0221 7.36433 35.9882 10.8444Z" fill="#FC611F" />
                        <path opacity="0.2" d="M0 64.7432H62.608V67.6371L0 64.7432Z" fill="black" />
                        <path opacity="0.2" d="M6.66406 51.6292H69.272V54.5231L6.66406 51.6292Z" fill="black" />
                        <path opacity="0.3" d="M28.1189 37.6352C28.1189 36.8659 28.0036 36.0966 28.0036 35.3151C28.0034 29.9589 29.6967 24.7269 32.863 20.301C36.0292 15.8751 40.5215 12.4606 45.7542 10.5026C42.5225 9.82635 39.1641 9.93552 35.9882 10.8201C21.8902 7.36444 15.482 16.2051 18.0453 25.8273C19.4807 30.9436 23.1718 35.7181 28.1189 37.6352Z" fill="white" />
                    </svg>