<svg xmlns="http://www.w3.org/2000/svg" width="72" height="75" viewBox="0 0 72 75" fill="none">
                        <path d="M35.691 13.4338C31.5606 13.4368 27.524 14.608 24.0929 16.7991C20.6619 18.9902 17.9908 22.1025 16.4184 25.7415C14.8459 29.3805 14.4428 33.3824 15.2601 37.2399C16.0775 41.0974 18.0785 44.6369 21.0096 47.4097C22.6442 48.9576 24.5396 51.6711 24.9006 53.8495L25.6226 58.1777H45.7795L46.5016 53.8399C46.8626 51.671 48.7579 48.9576 50.3926 47.4097C53.3248 44.6358 55.3263 41.0946 56.143 37.2353C56.9597 33.3759 56.555 29.3724 54.98 25.7326C53.405 22.0928 50.7309 18.9807 47.2967 16.7911C43.8626 14.6015 39.8232 13.433 35.691 13.4338Z" fill="#45C5D1" />
                        <path d="M39.43 59.7637C39.2093 59.7637 38.9975 59.6802 38.8414 59.5314C38.6854 59.3827 38.5977 59.181 38.5977 58.9707C38.5977 58.4739 38.6779 46.5498 45.9183 30.2307C45.9572 30.1302 46.0169 30.0384 46.094 29.9606C46.1711 29.8827 46.264 29.8206 46.367 29.7779C46.4699 29.7351 46.5809 29.7127 46.6933 29.7119C46.8056 29.7112 46.9169 29.732 47.0205 29.7733C47.1241 29.8146 47.2179 29.8755 47.2962 29.9522C47.3745 30.029 47.4356 30.12 47.476 30.2199C47.5164 30.3197 47.5352 30.4263 47.5311 30.5333C47.5271 30.6402 47.5004 30.7453 47.4527 30.8422C40.3426 46.8651 40.2724 58.856 40.2724 58.9707C40.2698 59.1819 40.1798 59.3836 40.0221 59.532C39.8645 59.6805 39.6517 59.7637 39.43 59.7637Z" fill="#FDC00F" />
                        <path d="M31.9407 59.7632C31.7199 59.7632 31.5082 59.6796 31.3521 59.5309C31.196 59.3822 31.1083 59.1805 31.1083 58.9702C31.1083 58.8555 31.0181 46.8455 23.9281 30.8416C23.8851 30.7457 23.8624 30.6426 23.8614 30.5383C23.8603 30.4339 23.8809 30.3304 23.9218 30.2337C23.9628 30.1369 24.0234 30.0488 24.1002 29.9745C24.177 29.9001 24.2685 29.8409 24.3693 29.8002C24.5743 29.7207 24.8038 29.7212 25.0083 29.8017C25.2129 29.8821 25.376 30.036 25.4624 30.2301C32.6828 46.5684 32.7831 58.4733 32.7831 58.9893C32.7753 59.1971 32.6831 59.394 32.5259 59.5384C32.3688 59.6827 32.159 59.7633 31.9407 59.7632Z" fill="#FDC00F" />
                        <path d="M45.8293 32.2372C45.2752 32.2244 44.7316 32.0912 44.2397 31.8478C43.7479 31.6044 43.3209 31.2572 42.9913 30.8327C42.7532 30.4756 42.4243 30.1815 42.0351 29.9777C41.6459 29.774 41.209 29.6672 40.765 29.6672C40.3209 29.6672 39.884 29.774 39.4949 29.9777C39.1057 30.1815 38.7768 30.4756 38.5387 30.8327C38.2174 31.2664 37.7914 31.6203 37.2967 31.8646C36.802 32.1088 36.2529 32.2363 35.6957 32.2363C35.1385 32.2363 34.5894 32.1088 34.0946 31.8646C33.5999 31.6203 33.174 31.2664 32.8527 30.8327C32.6133 30.4756 32.2834 30.1817 31.8935 29.9782C31.5035 29.7746 31.066 29.6679 30.6214 29.6679C30.1767 29.6679 29.7392 29.7746 29.3492 29.9782C28.9593 30.1817 28.6294 30.4756 28.3901 30.8327C28.0604 31.2572 27.6334 31.6044 27.1416 31.8478C26.6498 32.0912 26.1061 32.2244 25.5521 32.2372C25.4972 32.2385 25.4427 32.2293 25.3916 32.2102C25.3406 32.1911 25.2941 32.1624 25.2548 32.1259C25.2156 32.0894 25.1844 32.0458 25.1631 31.9976C25.1418 31.9494 25.1308 31.8977 25.1309 31.8455C25.1309 31.739 25.1752 31.637 25.2542 31.5617C25.3332 31.4865 25.4404 31.4442 25.5521 31.4442C25.9918 31.4291 26.4219 31.3168 26.8082 31.1162C27.1946 30.9155 27.5267 30.632 27.7783 30.2881C28.0982 29.8524 28.5237 29.4968 29.0186 29.2512C29.5135 29.0056 30.0633 28.8774 30.6214 28.8774C31.1794 28.8774 31.7292 29.0056 32.2241 29.2512C32.719 29.4968 33.1445 29.8524 33.4644 30.2881C33.7054 30.643 34.0358 30.9348 34.4256 31.1369C34.8153 31.3389 35.252 31.4447 35.6957 31.4447C36.1394 31.4447 36.576 31.3389 36.9658 31.1369C37.3555 30.9348 37.686 30.643 37.927 30.2881C38.2458 29.8525 38.6703 29.4967 39.1644 29.251C39.6585 29.0054 40.2076 28.8771 40.765 28.8771C41.3223 28.8771 41.8714 29.0054 42.3656 29.251C42.8597 29.4967 43.2842 29.8525 43.603 30.2881C43.8546 30.632 44.1867 30.9155 44.5731 31.1162C44.9595 31.3168 45.3895 31.4291 45.8293 31.4442C45.8846 31.4442 45.9394 31.4545 45.9905 31.4747C46.0416 31.4949 46.088 31.5245 46.1271 31.5617C46.1662 31.599 46.1972 31.6432 46.2184 31.6919C46.2396 31.7406 46.2505 31.7928 46.2505 31.8455C46.2505 31.8977 46.2395 31.9494 46.2182 31.9976C46.197 32.0458 46.1658 32.0894 46.1265 32.1259C46.0873 32.1624 46.0407 32.1911 45.9897 32.2102C45.9386 32.2293 45.8841 32.2385 45.8293 32.2372Z" fill="#FDC00F" />
                        <path d="M41.5984 72.7292H29.785C28.6777 72.7266 27.6166 72.3057 26.8345 71.5588C26.0525 70.8119 25.6133 69.8 25.6133 68.7449V58.1776H45.7702V68.7449C45.7702 69.8 45.331 70.8119 44.5489 71.5588C43.7668 72.3057 42.7058 72.7266 41.5984 72.7292Z" fill="#10A37F" />
                        <path d="M25.6641 66.9103V68.7447C25.6694 69.1072 25.7268 69.4672 25.8346 69.8148H45.6505C45.7582 69.4672 45.8156 69.1072 45.821 68.7447V66.9103H25.6641Z" fill="#D0F0F4" />
                        <path d="M45.7702 61.082H25.6133V63.9962H45.7702V61.082Z" fill="#D0F0F4" />
                        <path d="M35.69 74.5158C37.7559 74.5158 39.4306 73.7132 39.4306 72.7291H31.9395C31.9395 73.7132 33.6242 74.5158 35.69 74.5158Z" fill="#FDC00F" />
                        <path d="M35.6903 7.11811C35.4244 7.11811 35.1693 7.01746 34.9812 6.83828C34.7932 6.65909 34.6875 6.41606 34.6875 6.16265V0.955453C34.6875 0.702051 34.7932 0.459013 34.9812 0.27983C35.1693 0.100648 35.4244 0 35.6903 0C35.9563 0 36.2114 0.100648 36.3994 0.27983C36.5875 0.459013 36.6932 0.702051 36.6932 0.955453V6.16265C36.6932 6.41606 36.5875 6.65909 36.3994 6.83828C36.2114 7.01746 35.9563 7.11811 35.6903 7.11811Z" fill="#FDC00F" />
                        <path d="M21.079 10.8448C20.9039 10.8438 20.7323 10.7991 20.581 10.7153C20.4297 10.6315 20.304 10.5114 20.2165 10.367L17.4788 5.85733C17.4062 5.74859 17.3575 5.62698 17.3356 5.49983C17.3136 5.37267 17.3189 5.24258 17.3511 5.11742C17.3832 4.99226 17.4417 4.87461 17.5228 4.77152C17.6039 4.66842 17.7061 4.58204 17.8232 4.51755C17.9403 4.45306 18.0699 4.41179 18.2042 4.39625C18.3384 4.38071 18.4746 4.39123 18.6045 4.42713C18.7344 4.46303 18.8553 4.52358 18.96 4.60517C19.0647 4.68675 19.151 4.7877 19.2137 4.90188L21.9514 9.41159C22.0396 9.55712 22.086 9.72224 22.0858 9.89028C22.0856 10.0583 22.0389 10.2233 21.9504 10.3687C21.8619 10.5141 21.7348 10.6346 21.5818 10.7182C21.4288 10.8018 21.2553 10.8454 21.079 10.8448Z" fill="#FDC00F" />
                        <path d="M10.3793 21.0295C10.207 21.029 10.0378 20.9863 9.8879 20.9053L5.14453 18.2969C4.92625 18.1647 4.77003 17.9573 4.70849 17.7179C4.64695 17.4786 4.68485 17.2258 4.81429 17.0125C4.94373 16.7991 5.1547 16.6417 5.40311 16.573C5.65152 16.5043 5.91818 16.5298 6.14736 16.644L10.8907 19.2524C11.0797 19.3592 11.2266 19.5222 11.3089 19.7163C11.3912 19.9104 11.4042 20.1248 11.3462 20.3267C11.2881 20.5286 11.162 20.7067 10.9873 20.8337C10.8126 20.9607 10.599 21.0295 10.3793 21.0295Z" fill="#FDC00F" />
                        <path d="M6.46824 34.9506H1.00283C0.736863 34.9506 0.481773 34.8499 0.293706 34.6707C0.105639 34.4916 0 34.2485 0 33.9951C0 33.7417 0.105639 33.4987 0.293706 33.3195C0.481773 33.1404 0.736863 33.0397 1.00283 33.0397H6.46824C6.73421 33.0397 6.9893 33.1404 7.17736 33.3195C7.36543 33.4987 7.47107 33.7417 7.47107 33.9951C7.47107 34.2485 7.36543 34.4916 7.17736 34.6707C6.9893 34.8499 6.73421 34.9506 6.46824 34.9506Z" fill="#FDC00F" />
                        <path d="M5.60555 51.4701C5.3835 51.4716 5.16722 51.4028 4.99062 51.2746C4.81402 51.1463 4.6871 50.9658 4.62974 50.7615C4.57238 50.5571 4.58783 50.3403 4.67369 50.1452C4.75954 49.9501 4.91094 49.7877 5.10413 49.6834L9.83749 47.0846C10.0667 46.9703 10.3333 46.9449 10.5818 47.0135C10.8302 47.0822 11.0411 47.2397 11.1705 47.453C11.3 47.6664 11.3379 47.9191 11.2764 48.1585C11.2148 48.3978 11.0586 48.6053 10.8403 48.7375L6.14708 51.3459C5.98251 51.4352 5.79475 51.4782 5.60555 51.4701Z" fill="#FDC00F" />
                        <path d="M65.7161 51.4797C65.5405 51.4809 65.3675 51.4381 65.2147 51.3555L60.4814 48.7471C60.3615 48.6874 60.2556 48.6052 60.17 48.5054C60.0843 48.4057 60.0207 48.2905 59.9831 48.1667C59.9454 48.043 59.9344 47.9132 59.9507 47.7853C59.967 47.6574 60.0103 47.5339 60.078 47.4224C60.1456 47.3108 60.2363 47.2134 60.3445 47.1361C60.4527 47.0588 60.5762 47.0032 60.7076 46.9725C60.839 46.9419 60.9755 46.9368 61.1089 46.9577C61.2424 46.9786 61.37 47.0251 61.4842 47.0942L66.2175 49.7026C66.4058 49.809 66.5523 49.9711 66.6348 50.1643C66.7173 50.3574 66.7312 50.571 66.6743 50.7724C66.6175 50.9737 66.4931 51.1519 66.3201 51.2796C66.1471 51.4073 65.935 51.4776 65.7161 51.4797Z" fill="#FDC00F" />
                        <path d="M70.3689 34.96H64.8935C64.6275 34.96 64.3724 34.8593 64.1844 34.6801C63.9963 34.5009 63.8906 34.2579 63.8906 34.0045C63.8906 33.7511 63.9963 33.5081 64.1844 33.3289C64.3724 33.1497 64.6275 33.0491 64.8935 33.0491H70.3689C70.6349 33.0491 70.89 33.1497 71.078 33.3289C71.2661 33.5081 71.3717 33.7511 71.3717 34.0045C71.3717 34.2579 71.2661 34.5009 71.078 34.6801C70.89 34.8593 70.6349 34.96 70.3689 34.96Z" fill="#FDC00F" />
                        <path d="M60.9928 21.0393C60.7731 21.0392 60.5594 20.9704 60.3848 20.8435C60.2101 20.7165 60.084 20.5384 60.0259 20.3365C59.9678 20.1346 59.9809 19.9201 60.0632 19.726C60.1455 19.5319 60.2924 19.369 60.4813 19.2622L65.2247 16.6538C65.455 16.5292 65.7276 16.4965 65.9831 16.5627C66.2386 16.6289 66.4563 16.7887 66.5886 17.0073C66.6553 17.1158 66.6989 17.2357 66.7168 17.3603C66.7348 17.4849 66.7268 17.6116 66.6932 17.7332C66.6597 17.8548 66.6013 17.9689 66.5214 18.0689C66.4415 18.169 66.3416 18.253 66.2275 18.3163L61.4841 20.9151C61.3343 20.996 61.165 21.0388 60.9928 21.0393Z" fill="#FDC00F" />
                        <path d="M50.293 10.8542C50.1173 10.8554 49.9444 10.8125 49.7916 10.73C49.6775 10.6668 49.5777 10.5828 49.4977 10.4827C49.4178 10.3826 49.3594 10.2685 49.3259 10.1469C49.2924 10.0253 49.2843 9.89863 49.3023 9.77407C49.3203 9.6495 49.3639 9.52953 49.4306 9.42105L52.1583 4.91131C52.2241 4.80215 52.3119 4.70643 52.4166 4.62959C52.5212 4.55274 52.6408 4.4963 52.7684 4.46347C52.896 4.43064 53.0291 4.42206 53.1601 4.43825C53.2912 4.45444 53.4176 4.49506 53.5322 4.5578C53.6467 4.62053 53.7472 4.70416 53.8279 4.80389C53.9085 4.90363 53.9678 5.01752 54.0022 5.13907C54.0367 5.26061 54.0457 5.38743 54.0287 5.51229C54.0117 5.63715 53.9691 5.7576 53.9032 5.86676L51.1655 10.3765C51.0771 10.5223 50.9499 10.6433 50.7967 10.7272C50.6435 10.8111 50.4697 10.8549 50.293 10.8542Z" fill="#FDC00F" />
                        <path opacity="0.3" d="M19.4752 33.1921C22.7946 36.3546 28.8517 35.7145 33.0034 31.7589C37.1551 27.8033 37.827 22.0324 34.5177 18.8699C31.2083 15.7073 25.1412 16.3475 20.9794 20.303C16.8177 24.2586 16.1558 30.0486 19.4752 33.1921Z" fill="white" />
                        <path opacity="0.3" d="M34.017 38.6004C35.2605 39.7851 37.5269 39.5558 39.0813 38.0653C40.6357 36.5748 40.8964 34.425 39.6529 33.2402C38.4094 32.0555 36.143 32.2848 34.5886 33.7753C33.0342 35.2658 32.7735 37.4156 34.017 38.6004Z" fill="white" />
                        <path opacity="0.2" d="M26.6669 58.9898H44.8181C45.0609 59.0085 45.3017 58.9361 45.4891 58.7879C45.6765 58.6397 45.7956 58.4275 45.821 58.1968H25.6641C25.6641 58.1968 26.0652 58.9898 26.6669 58.9898Z" fill="black" />
                        <path opacity="0.2" d="M32.3506 73.5221H39.0294C39.1483 73.422 39.245 73.3003 39.3138 73.1641C39.3827 73.028 39.4224 72.8801 39.4306 72.7291H31.9395C31.9495 72.8807 31.991 73.0288 32.0615 73.1649C32.1321 73.3011 32.2304 73.4225 32.3506 73.5221Z" fill="black" />
                    </svg>