<svg xmlns="http://www.w3.org/2000/svg" width="53" height="63" viewBox="0 0 53 63" fill="none">
                        <path d="M52.0442 57.3789H7.0332V62.8727H52.0442V57.3789Z" fill="#D1DCE4" />
                        <path d="M0.0117188 46.1073L5.97672 62.0322C6.09184 62.3114 6.30379 62.5447 6.57733 62.6933C6.85086 62.8419 7.16956 62.8969 7.48042 62.8491L24.9405 59.8299L28.9669 53.1758L4.03809 39.4651L0.0117188 46.1073Z" fill="#FEDFD2" />
                        <path d="M10.7993 55.7213C9.70045 55.1472 8.46738 54.8462 7.2141 54.8462C5.96082 54.8462 4.72779 55.1472 3.62891 55.7213L5.97761 62.0084C6.09273 62.2876 6.30468 62.5209 6.57822 62.6695C6.85176 62.8181 7.17045 62.8731 7.48132 62.8253L14.3783 61.6413C14.3521 60.4475 14.0104 59.2792 13.3848 58.2445C12.7592 57.2098 11.87 56.342 10.7993 55.7213Z" fill="#184F78" />
                        <path d="M10.3518 44.959L0 46.1075L21.7102 10.2797L28.9552 14.2579L10.3518 44.959Z" fill="#FC611F" />
                        <path d="M20.8028 50.7129L12.4641 52.9625L10.3516 44.9587L28.9549 14.2576L39.4061 20.0118L20.8028 50.7129Z" fill="#FD814C" />
                        <path d="M24.9409 59.8179L20.8027 50.713L39.4061 20.0118L46.6511 23.9901L24.9409 59.8179Z" fill="#FDA079" />
                        <path d="M23.8026 6.81477L21.7148 10.26L46.6509 23.9767L48.7386 20.5314L23.8026 6.81477Z" fill="#D1DCE4" />
                        <path d="M51.249 11.6647L30.6076 0.321959C30.3247 0.164902 30.012 0.0626525 29.6875 0.0210993C29.3629 -0.020454 29.033 -0.000501731 28.7166 0.0798151C28.4001 0.160132 28.1035 0.299228 27.8437 0.48911C27.5839 0.678991 27.366 0.91592 27.2026 1.18627L23.7852 6.83394L48.7139 20.5565L52.1438 14.897C52.4738 14.355 52.565 13.7106 52.3973 13.1047C52.2296 12.4989 51.8167 11.9811 51.249 11.6647Z" fill="#184F78" />
                    </svg>