<svg xmlns="http://www.w3.org/2000/svg" width="84" height="78" viewBox="0 0 84 78" fill="none">
                        <g clip-path="url(#clip0_312_4591)">
                            <path d="M35.1314 78C54.534 78 70.2629 63.0142 70.2629 44.5283C70.2629 26.0424 54.534 11.0566 35.1314 11.0566C15.7289 11.0566 0 26.0424 0 44.5283C0 63.0142 15.7289 78 35.1314 78Z" fill="#E84245" />
                            <path d="M35.1321 73.1493C51.7228 73.1493 65.1723 60.3352 65.1723 44.5283C65.1723 28.7213 51.7228 15.9072 35.1321 15.9072C18.5413 15.9072 5.0918 28.7213 5.0918 44.5283C5.0918 60.3352 18.5413 73.1493 35.1321 73.1493Z" fill="#DB323E" />
                            <path d="M35.1305 68.9517C49.288 68.9517 60.765 58.017 60.765 44.5283C60.765 31.0397 49.288 20.105 35.1305 20.105C20.973 20.105 9.49609 31.0397 9.49609 44.5283C9.49609 58.017 20.973 68.9517 35.1305 68.9517Z" fill="white" />
                            <path d="M35.1324 62.6414C45.632 62.6414 54.1437 54.5319 54.1437 44.5283C54.1437 34.5247 45.632 26.4152 35.1324 26.4152C24.6327 26.4152 16.1211 34.5247 16.1211 44.5283C16.1211 54.5319 24.6327 62.6414 35.1324 62.6414Z" fill="#D1E1EB" />
                            <path d="M49.9126 46.8244C51.2482 39.0455 45.7121 31.708 37.5475 30.4355C29.3829 29.1631 21.6815 34.4376 20.346 42.2165C19.0104 49.9954 24.5465 57.3329 32.7111 58.6054C40.8757 59.8778 48.5771 54.6033 49.9126 46.8244Z" fill="#E84245" />
                            <path d="M45.4021 46.1249C46.328 40.7204 42.4801 35.624 36.8075 34.7419C31.135 33.8598 25.7859 37.5259 24.86 42.9305C23.9342 48.335 27.7821 53.4314 33.4546 54.3135C39.1272 55.1957 44.4763 51.5295 45.4021 46.1249Z" fill="#DB323E" />
                            <path d="M35.1318 51.0086C38.8882 51.0086 41.9334 48.1073 41.9334 44.5283C41.9334 40.9493 38.8882 38.048 35.1318 38.048C31.3753 38.048 28.3301 40.9493 28.3301 44.5283C28.3301 48.1073 31.3753 51.0086 35.1318 51.0086Z" fill="white" />
                            <path d="M40.3789 40.9123L66.3992 16.1213" stroke="#2A3F92" stroke-width="4.77" stroke-miterlimit="10" />
                            <path d="M64.0195 18.3874L73.626 9.23486L83.3245 9.83845L72.6123 20.0446L64.0195 18.3874Z" fill="#2A3F92" />
                            <path d="M64.0206 18.3875L73.6271 9.23489L72.9936 0L62.2871 10.2006L64.0206 18.3875Z" fill="#223072" />
                            <path d="M35.1309 45.911L45.7682 42.3773L38.8398 35.7817L35.1309 45.911Z" fill="#2A3F92" />
                            <path d="M35.1309 45.9111L45.7682 42.3774L42.3011 39.0796L35.1309 45.9111Z" fill="#223072" />
                        </g>
                        <defs>
                            <clipPath id="clip0_312_4591">
                                <rect width="83.3191" height="78" fill="white" />
                            </clipPath>
                        </defs>
                    </svg>