<svg xmlns="http://www.w3.org/2000/svg" width="105" height="57" viewBox="0 0 105 57" fill="none">
                        <path d="M24.625 21.521V47.2091C24.625 50.1468 46.3696 56.4103 52.4853 56.4103C58.601 56.4103 80.3456 50.1468 80.3456 47.2091V21.521H24.625Z" fill="#184F78" />
                        <path opacity="0.3" d="M24.6133 33.427L52.4872 43.4305L80.3475 33.427V24.1094H24.6133V33.427Z" fill="black" />
                        <path d="M52.4861 0L0 18.8552L52.4861 37.7234L104.959 18.8552L52.4861 0Z" fill="#184F78" />
                        <path d="M52.4861 37.723L0 18.8549V21.4431L52.4861 40.3113L104.959 21.4431V18.8549L52.4861 37.723Z" fill="#467293" />
                        <path d="M83.6625 42.3306H81.3249C81.3249 42.3306 76.1877 49.2411 79.5717 56.1776H85.4156C88.7996 49.2411 83.6625 42.3306 83.6625 42.3306Z" fill="#FDC00F" />
                        <path d="M84.3424 55.0255C84.4239 54.2992 84.4602 53.5689 84.451 52.8384C84.4848 52.4293 84.4848 52.0182 84.451 51.609L84.3288 50.3149C84.2954 49.88 84.2318 49.4477 84.1386 49.0208C84.0707 48.6196 83.9892 48.2185 83.9213 47.8432C83.704 47.0926 83.5682 46.3808 83.3508 45.7985C83.1552 45.1516 82.9193 44.5163 82.6445 43.8961C82.8705 44.5408 83.0564 45.1976 83.2014 45.8632C83.3644 46.4455 83.4595 47.1573 83.6089 47.9208L83.7312 49.1114C83.7903 49.5145 83.8221 49.9208 83.8262 50.3279C83.8262 50.729 83.8262 51.1431 83.8262 51.5443C83.8539 51.9364 83.8539 52.3299 83.8262 52.722C83.7844 53.4079 83.6982 54.0908 83.5682 54.7667C83.4459 55.3102 83.3373 55.7502 83.2558 56.0608H84.2337C84.2201 55.8537 84.2745 55.4784 84.3424 55.0255Z" fill="#FED96F" />
                        <path d="M81.4881 54.8312C81.3647 54.1544 81.2786 53.4719 81.23 52.7865C81.1957 52.3947 81.1957 52.0008 81.23 51.6089C81.23 51.2077 81.23 50.7936 81.23 50.3924C81.2342 49.9854 81.2659 49.5791 81.3251 49.176C81.3251 48.7748 81.4066 48.3736 81.4609 47.9854C81.5967 47.2348 81.6918 46.5101 81.8548 45.9277C81.9919 45.2715 82.1688 44.6233 82.3845 43.9866C82.1098 44.6068 81.8739 45.242 81.6782 45.8889C81.4745 46.4713 81.3251 47.183 81.1213 47.9336C81.0398 48.3089 80.9719 48.7101 80.8904 49.1113C80.7972 49.5382 80.7337 49.9705 80.7003 50.4054L80.578 51.6995C80.5443 52.1087 80.5443 52.5197 80.578 52.9289C80.5689 53.6593 80.6052 54.3896 80.6867 55.1159C80.6867 55.5689 80.8089 55.9442 80.8633 56.2677H81.8412C81.719 55.8407 81.6103 55.4007 81.4881 54.8312Z" fill="#FED96F" />
                        <path d="M86.0001 54.0291C86.0765 53.6018 86.1084 53.1683 86.0953 52.735C86.1264 52.3042 86.1264 51.8718 86.0953 51.4409C86.0459 50.9841 85.9687 50.5304 85.8642 50.0821C85.4893 48.5256 84.8562 47.0359 83.9888 45.6692C83.6232 45.0857 83.2145 44.5279 82.7656 43.9998C83.158 44.5665 83.5077 45.1589 83.8121 45.7727C84.5445 47.1724 85.053 48.6686 85.3206 50.2115C85.3889 50.6401 85.4297 51.0723 85.4429 51.5056C85.4808 51.9362 85.4808 52.3691 85.4429 52.7997C85.4311 53.1752 85.3765 53.5484 85.2798 53.9127C85.2234 54.244 85.1323 54.5691 85.008 54.8833C84.8631 55.3315 84.6719 55.765 84.4372 56.1774H85.4701C85.5517 56.0221 85.5924 55.8797 85.6604 55.7374C85.7283 55.595 85.7827 55.3621 85.8371 55.1421C85.9235 54.776 85.9781 54.4038 86.0001 54.0291Z" fill="#FED96F" />
                        <path d="M82.4949 43.9866L82.0195 56.1254H82.9703L82.4949 43.9866Z" fill="#FED96F" />
                        <path d="M80.6045 56.1254C80.359 55.7164 80.1629 55.2822 80.0201 54.8312C79.8958 54.5171 79.8047 54.192 79.7483 53.8607C79.6579 53.4953 79.6033 53.1227 79.5852 52.7477C79.5398 52.3174 79.5398 51.8839 79.5852 51.4536C79.5939 51.0205 79.6302 50.5884 79.6939 50.1595C79.9561 48.6335 80.4602 47.1543 81.1889 45.7724C81.5038 45.1495 81.872 44.5522 82.2897 43.9866C81.8238 44.5112 81.4012 45.0693 81.0258 45.656C80.164 47.0254 79.5313 48.5142 79.1503 50.0689C79.0437 50.5163 78.971 50.9704 78.9328 51.4277C78.8245 52.2874 78.8245 53.1563 78.9328 54.016C78.9794 54.3911 79.052 54.7629 79.1503 55.1289C79.1503 55.3489 79.2726 55.5301 79.327 55.7242C79.3813 55.9183 79.4493 56.0089 79.5172 56.1642H80.5637L80.6045 56.1254Z" fill="#FED96F" />
                        <path d="M79.8431 42.3302C79.8431 41.8183 80.0025 41.3179 80.3012 40.8922C80.5999 40.4666 81.0244 40.1349 81.521 39.939C82.0177 39.7431 82.5642 39.6918 83.0915 39.7917C83.6187 39.8915 84.103 40.138 84.4832 40.5C84.8633 40.862 85.1222 41.3232 85.227 41.8252C85.3319 42.3273 85.2781 42.8477 85.0724 43.3206C84.8666 43.7936 84.5183 44.1978 84.0713 44.4822C83.6243 44.7666 83.0988 44.9184 82.5612 44.9184C82.2012 44.9292 81.8427 44.8696 81.5078 44.7433C81.1729 44.6171 80.8687 44.4268 80.614 44.1843C80.3593 43.9418 80.1595 43.6521 80.0269 43.3333C79.8944 43.0144 79.8318 42.673 79.8431 42.3302Z" fill="#FED96F" />
                        <path opacity="0.3" d="M52.4851 23.5654C57.0937 23.5654 60.8296 21.4564 60.8296 18.8549C60.8296 16.2533 57.0937 14.1443 52.4851 14.1443C47.8766 14.1443 44.1406 16.2533 44.1406 18.8549C44.1406 21.4564 47.8766 23.5654 52.4851 23.5654Z" fill="black" />
                        <path d="M60.6418 19.813C60.2989 20.6572 59.6855 21.3771 58.8887 21.8706V22L81.1633 28.2765V42.3306H83.8814V26.3612L60.6418 19.813Z" fill="#FDC00F" />
                        <path d="M44.1406 18.2082C44.1406 15.9693 47.3616 14.1576 51.3299 14.1576C55.2983 14.1576 58.5057 15.9693 58.5057 18.2082C58.5057 20.447 55.2848 22.2587 51.3299 22.2587C47.3751 22.2587 44.1406 20.447 44.1406 18.2082Z" fill="#184F78" />
                    </svg>