<svg width="20" height="21" viewBox="0 0 20 21" fill="none" xmlns="http://www.w3.org/2000/svg">
<g clip-path="url(#clip0_202_88)">
<path d="M1.66699 20.6486V18.1277H18.3337V20.6486H1.66699ZM3.37533 15.9194V13.1486L11.1462 5.37772L13.917 8.14855L6.14616 15.9194H3.37533ZM4.62533 14.6694H5.56283L12.1253 8.10689L11.1878 7.16939L4.62533 13.7319V14.6694ZM14.8337 7.23189L12.0628 4.46105L13.8128 2.71105C13.9656 2.5305 14.1392 2.43675 14.3337 2.4298C14.5281 2.42286 14.7225 2.51661 14.917 2.71105L16.542 4.33605C16.7225 4.51661 16.8128 4.70758 16.8128 4.90897C16.8128 5.11036 16.7364 5.30133 16.5837 5.48189L14.8337 7.23189Z" fill="#D1D5DB"/>
</g>
<defs>
<clipPath id="clip0_202_88">
<rect width="20" height="20" fill="white" transform="translate(0 0.648438)"/>
</clipPath>
</defs>
</svg>
