<svg width="26" height="26" viewBox="0 0 26 26" fill="none" xmlns="http://www.w3.org/2000/svg">
<path d="M4.875 23.8062C4.44167 23.8062 4.0625 23.6437 3.7375 23.3187C3.4125 22.9937 3.25 22.6145 3.25 22.1812V5.84994H4.875V22.1812H17.7125V23.8062H4.875ZM8.125 20.5562C7.69167 20.5562 7.3125 20.3937 6.9875 20.0687C6.6625 19.7437 6.5 19.3645 6.5 18.9312V3.76453C6.5 3.33119 6.6625 2.95203 6.9875 2.62703C7.3125 2.30203 7.69167 2.13953 8.125 2.13953H20.0417C20.475 2.13953 20.8542 2.30203 21.1792 2.62703C21.5042 2.95203 21.6667 3.33119 21.6667 3.76453V18.9312C21.6667 19.3645 21.5042 19.7437 21.1792 20.0687C20.8542 20.3937 20.475 20.5562 20.0417 20.5562H8.125ZM8.125 18.9312H20.0417V3.76453H8.125V18.9312Z" fill="white"/>
</svg>
