<svg width="26" height="26" viewBox="0 0 26 26" fill="none" xmlns="http://www.w3.org/2000/svg">
<path d="M22.75 21.125C22.75 21.5583 22.5875 21.9375 22.2625 22.2625C21.9375 22.5875 21.5583 22.75 21.125 22.75L4.875 22.75C4.44167 22.75 4.0625 22.5875 3.7375 22.2625C3.4125 21.9375 3.25 21.5583 3.25 21.125L3.25 4.875C3.25 4.44167 3.4125 4.0625 3.7375 3.7375C4.0625 3.4125 4.44167 3.25 4.875 3.25L14.0833 3.25L14.0833 4.875L4.875 4.875L4.875 21.125L21.125 21.125L21.125 11.9167L22.75 11.9167L22.75 21.125ZM22.75 10.2917L21.125 10.2917L21.125 6.0125L10.7792 16.3583L9.64167 15.2208L19.9604 4.875L15.7083 4.875L15.7083 3.25L22.75 3.25L22.75 10.2917Z" fill="#757575"/>
</svg>
