<svg width="329" height="88" viewBox="0 0 329 88" fill="none" xmlns="http://www.w3.org/2000/svg">
<path d="M83.0649 52.9234C83.4345 52.1934 83.6787 51.6616 83.9658 51.1529C86.8964 45.9936 89.8468 40.8442 92.7609 35.6717C93.7971 33.8319 93.6651 32.1672 92.4474 30.7667C91.2824 29.429 89.7478 28.8906 88.1571 29.5644C87.1221 30.0309 86.2458 30.7897 85.6357 31.7477C83.9394 34.443 82.4147 37.2472 80.8834 40.0416C80.2234 41.2241 79.4115 41.7922 78.0056 41.7823C70.1445 41.7327 62.2834 41.7658 54.4223 41.7526C51.9076 41.7526 51.0495 40.2893 52.2739 38.0862C53.9042 35.1553 55.5642 32.2432 57.2539 29.3497C58.8479 26.6247 61.2769 25.0987 64.4088 25.0558C69.7419 24.9567 75.075 25.0294 80.4082 25.0393C80.6349 25.0806 80.8563 25.147 81.0682 25.2375C80.3686 26.4761 79.7844 27.7048 78.999 28.7882C78.7383 29.1482 77.9561 29.2572 77.4116 29.2639C73.5074 29.3035 69.6033 29.3299 65.6991 29.2639C63.3164 29.2275 61.5904 30.083 60.498 32.2795C59.6532 33.9773 58.6433 35.5825 57.5674 37.4917H69.897C71.9332 37.4917 73.9662 37.4421 75.9991 37.5148C76.9892 37.5511 77.5898 37.2373 78.0749 36.329C79.2828 34.0499 80.593 31.8204 81.8933 29.5875C84.4245 25.2342 89.3386 23.7676 93.4869 26.1062C97.6353 28.4447 98.9323 33.4752 96.4901 37.8352C93.9391 42.39 91.2989 46.8921 88.7841 51.47C88.1736 52.5799 87.5168 53.1216 86.2265 52.9564C85.2529 52.8276 84.2694 52.9234 83.0649 52.9234Z" fill="white"/>
<path d="M91.8666 60.5071C85.3091 60.5071 79.0981 60.484 72.8904 60.5566C72.4053 60.5566 71.7617 61.1281 71.4713 61.607C70.105 63.8597 68.8509 66.185 67.511 68.4641C64.9864 72.7943 60.0262 74.2344 55.891 71.8662C51.7558 69.4979 50.5216 64.4872 52.9769 60.1107C55.4785 55.6517 58.079 51.2487 60.5245 46.7599C61.2142 45.4916 61.9568 44.8211 63.4485 45.0424C64.3065 45.1679 65.2009 45.0655 66.3692 45.0655C66.0193 45.7459 65.7817 46.2645 65.5045 46.7566C62.5739 51.9192 59.6136 57.0654 56.7128 62.2445C55.099 65.1214 56.5279 68.256 59.5938 68.6292C61.4948 68.8604 62.8775 67.9851 63.8049 66.3468C65.3791 63.5756 66.9962 60.8275 68.5044 58.0199C69.2206 56.6987 70.1545 56.1867 71.6759 56.2C79.3753 56.2594 87.0714 56.2231 94.7774 56.2297C97.6222 56.2297 98.4538 57.65 97.0578 60.1239C95.4638 62.948 93.8632 65.7688 92.2329 68.5731C90.7214 71.1791 88.4443 72.8274 85.4411 72.9066C79.8307 73.0586 74.2468 72.9496 68.28 72.9496C69.0852 71.5359 69.7057 70.284 70.4977 69.1544C70.7287 68.8241 71.4548 68.7316 71.9564 68.7283C75.9695 68.692 79.9825 68.6722 83.9956 68.7283C86.1935 68.7547 87.7941 67.9323 88.8337 65.9538C89.7314 64.2065 90.7379 62.5153 91.8666 60.5071Z" fill="white"/>
<path d="M115.721 62.68V62.053L129.686 39.063H116.481V35.32H136.507V35.966L122.618 58.918H136.26V62.68H115.721Z" fill="white"/>
<path d="M141.464 62.68V35.32H145.435V62.68H141.464Z" fill="white"/>
<path d="M162.56 63.25C159.824 63.25 157.493 62.6547 155.568 61.464C153.643 60.2607 152.167 58.5887 151.141 56.448C150.128 54.3073 149.621 51.8247 149.621 49C149.621 46.1753 150.128 43.6927 151.141 41.552C152.167 39.4113 153.643 37.7457 155.568 36.555C157.493 35.3517 159.824 34.75 162.56 34.75C165.283 34.75 167.608 35.3517 169.533 36.555C171.471 37.7457 172.947 39.4113 173.96 41.552C174.973 43.6927 175.48 46.1753 175.48 49C175.48 51.8247 174.973 54.3073 173.96 56.448C172.947 58.5887 171.471 60.2607 169.533 61.464C167.608 62.6547 165.283 63.25 162.56 63.25ZM162.56 59.469C164.498 59.4943 166.107 59.07 167.386 58.196C168.678 57.3093 169.647 56.0807 170.293 54.51C170.939 52.9267 171.262 51.09 171.262 49C171.262 46.91 170.939 45.086 170.293 43.528C169.647 41.9573 168.678 40.735 167.386 39.861C166.107 38.987 164.498 38.5437 162.56 38.531C160.622 38.5057 159.007 38.93 157.715 39.804C156.436 40.678 155.473 41.9067 154.827 43.49C154.181 45.0733 153.852 46.91 153.839 49C153.826 51.09 154.143 52.9203 154.789 54.491C155.435 56.049 156.404 57.265 157.696 58.139C159.001 59.013 160.622 59.4563 162.56 59.469Z" fill="white"/>
<path d="M179.27 62.68V35.32H183.298L196.769 55.65V35.32H200.797V62.68H196.769L183.298 42.331V62.68H179.27Z" fill="white"/>
<path d="M217.291 63.25C215.454 63.25 213.763 62.9333 212.218 62.3C210.673 61.654 209.33 60.7167 208.19 59.488C207.05 58.2593 206.163 56.7647 205.53 55.004C204.897 53.2433 204.58 51.242 204.58 49C204.58 46.0487 205.118 43.5153 206.195 41.4C207.272 39.272 208.766 37.638 210.679 36.498C212.592 35.3453 214.796 34.769 217.291 34.769C220.508 34.769 223.073 35.5163 224.986 37.011C226.911 38.5057 228.222 40.5703 228.919 43.205L224.891 43.927C224.334 42.293 223.434 40.9883 222.193 40.013C220.952 39.0377 219.394 38.5437 217.519 38.531C215.581 38.5183 213.966 38.949 212.674 39.823C211.395 40.697 210.432 41.9257 209.786 43.509C209.14 45.0797 208.811 46.91 208.798 49C208.785 51.09 209.102 52.9203 209.748 54.491C210.394 56.049 211.363 57.265 212.655 58.139C213.96 59.013 215.581 59.4563 217.519 59.469C219.077 59.4943 220.413 59.2093 221.528 58.614C222.655 58.006 223.548 57.1193 224.207 55.954C224.866 54.7887 225.29 53.3573 225.48 51.66H220.16V48.468H229.698C229.723 48.696 229.742 49 229.755 49.38C229.768 49.7473 229.774 49.9817 229.774 50.083C229.774 52.6163 229.286 54.8773 228.311 56.866C227.336 58.8547 225.917 60.419 224.055 61.559C222.193 62.6863 219.938 63.25 217.291 63.25Z" fill="white"/>
<path d="M233.561 62.68V35.32H244.619C244.885 35.32 245.214 35.3327 245.607 35.358C245.999 35.3707 246.373 35.4087 246.728 35.472C248.248 35.7127 249.514 36.232 250.528 37.03C251.554 37.828 252.32 38.835 252.827 40.051C253.333 41.267 253.587 42.6097 253.587 44.079C253.587 45.561 253.333 46.91 252.827 48.126C252.32 49.342 251.554 50.349 250.528 51.147C249.514 51.945 248.248 52.4643 246.728 52.705C246.373 52.7557 245.993 52.7937 245.588 52.819C245.195 52.8443 244.872 52.857 244.619 52.857H237.532V62.68H233.561ZM237.532 49.095H244.467C244.72 49.095 244.999 49.0823 245.303 49.057C245.619 49.0317 245.917 48.9873 246.196 48.924C247.006 48.734 247.659 48.3857 248.153 47.879C248.647 47.3597 249.001 46.7643 249.217 46.093C249.432 45.4217 249.54 44.7503 249.54 44.079C249.54 43.4077 249.432 42.7427 249.217 42.084C249.001 41.4127 248.647 40.8237 248.153 40.317C247.659 39.7977 247.006 39.443 246.196 39.253C245.917 39.177 245.619 39.1263 245.303 39.101C244.999 39.0757 244.72 39.063 244.467 39.063H237.532V49.095Z" fill="white"/>
<path d="M264.206 62.68V39.063H255.105V35.32H277.278V39.063H268.177V62.68H264.206Z" fill="white"/>
</svg>
