<svg width="20" height="21" viewBox="0 0 20 21" fill="none" xmlns="http://www.w3.org/2000/svg">
<path d="M10.0003 18.9819C8.86144 18.9819 7.78505 18.7631 6.77116 18.3256C5.75727 17.8881 4.87185 17.2909 4.11491 16.5339C3.35796 15.777 2.76074 14.8916 2.32324 13.8777C1.88574 12.8638 1.66699 11.7874 1.66699 10.6485C1.66699 9.46796 1.88921 8.37074 2.33366 7.35685C2.7781 6.34296 3.38574 5.46102 4.15658 4.71102C4.92741 3.96102 5.83019 3.37421 6.86491 2.9506C7.89963 2.52699 9.00727 2.31519 10.1878 2.31519C11.285 2.31519 12.3267 2.49921 13.3128 2.86727C14.2989 3.23532 15.1635 3.74574 15.9066 4.39852C16.6496 5.0513 17.2399 5.8256 17.6774 6.72144C18.1149 7.61727 18.3337 8.59991 18.3337 9.66935C18.3337 11.1694 17.8962 12.3534 17.0212 13.2214C16.1462 14.0895 14.9864 14.5235 13.542 14.5235H11.9795C11.7295 14.5235 11.5142 14.6207 11.3337 14.8152C11.1531 15.0096 11.0628 15.2249 11.0628 15.461C11.0628 15.836 11.1635 16.1555 11.3649 16.4194C11.5663 16.6832 11.667 16.9888 11.667 17.336C11.667 17.8638 11.5212 18.27 11.2295 18.5548C10.9378 18.8395 10.5281 18.9819 10.0003 18.9819ZM5.14616 11.1902C5.42394 11.1902 5.66699 11.086 5.87533 10.8777C6.08366 10.6694 6.18783 10.4263 6.18783 10.1485C6.18783 9.87074 6.08366 9.62769 5.87533 9.41935C5.66699 9.21102 5.42394 9.10685 5.14616 9.10685C4.86838 9.10685 4.62533 9.21102 4.41699 9.41935C4.20866 9.62769 4.10449 9.87074 4.10449 10.1485C4.10449 10.4263 4.20866 10.6694 4.41699 10.8777C4.62533 11.086 4.86838 11.1902 5.14616 11.1902ZM7.77116 7.64852C8.04894 7.64852 8.29199 7.54435 8.50033 7.33602C8.70866 7.12769 8.81283 6.88463 8.81283 6.60685C8.81283 6.32907 8.70866 6.08602 8.50033 5.87769C8.29199 5.66935 8.04894 5.56519 7.77116 5.56519C7.49338 5.56519 7.25033 5.66935 7.04199 5.87769C6.83366 6.08602 6.72949 6.32907 6.72949 6.60685C6.72949 6.88463 6.83366 7.12769 7.04199 7.33602C7.25033 7.54435 7.49338 7.64852 7.77116 7.64852ZM12.2295 7.64852C12.5073 7.64852 12.7503 7.54435 12.9587 7.33602C13.167 7.12769 13.2712 6.88463 13.2712 6.60685C13.2712 6.32907 13.167 6.08602 12.9587 5.87769C12.7503 5.66935 12.5073 5.56519 12.2295 5.56519C11.9517 5.56519 11.7087 5.66935 11.5003 5.87769C11.292 6.08602 11.1878 6.32907 11.1878 6.60685C11.1878 6.88463 11.292 7.12769 11.5003 7.33602C11.7087 7.54435 11.9517 7.64852 12.2295 7.64852ZM14.9587 11.1902C15.2364 11.1902 15.4795 11.086 15.6878 10.8777C15.8962 10.6694 16.0003 10.4263 16.0003 10.1485C16.0003 9.87074 15.8962 9.62769 15.6878 9.41935C15.4795 9.21102 15.2364 9.10685 14.9587 9.10685C14.6809 9.10685 14.4378 9.21102 14.2295 9.41935C14.0212 9.62769 13.917 9.87074 13.917 10.1485C13.917 10.4263 14.0212 10.6694 14.2295 10.8777C14.4378 11.086 14.6809 11.1902 14.9587 11.1902ZM10.0003 17.7319C10.1531 17.7319 10.2607 17.7006 10.3232 17.6381C10.3857 17.5756 10.417 17.4749 10.417 17.336C10.417 17.1416 10.3163 16.961 10.1149 16.7944C9.91352 16.6277 9.81283 16.2596 9.81283 15.6902C9.81283 15.0513 10.0212 14.4888 10.4378 14.0027C10.8545 13.5166 11.3823 13.2735 12.0212 13.2735H13.542C14.5975 13.2735 15.4517 12.9645 16.1045 12.3464C16.7573 11.7284 17.0837 10.836 17.0837 9.66935C17.0837 7.83602 16.3892 6.36032 15.0003 5.24227C13.6114 4.12421 12.0073 3.56519 10.1878 3.56519C8.16005 3.56519 6.4413 4.24921 5.03158 5.61727C3.62185 6.98532 2.91699 8.66241 2.91699 10.6485C2.91699 12.6069 3.60796 14.277 4.98991 15.6589C6.37185 17.0409 8.04199 17.7319 10.0003 17.7319Z" fill="#D1D5DB"/>
</svg>
