<svg width="36" height="36" viewBox="0 0 36 36" fill="none" xmlns="http://www.w3.org/2000/svg">
<path d="M7.79468 19.8C7.29823 19.8 6.875 19.6232 6.525 19.2696C6.175 18.9161 6 18.4911 6 17.9946C6 17.4982 6.17677 17.075 6.53032 16.725C6.88385 16.375 7.30885 16.2 7.80533 16.2C8.30177 16.2 8.725 16.3767 9.075 16.7303C9.425 17.0838 9.6 17.5088 9.6 18.0053C9.6 18.5017 9.42323 18.925 9.06968 19.275C8.71615 19.625 8.29115 19.8 7.79468 19.8ZM17.9947 19.8C17.4982 19.8 17.075 19.6232 16.725 19.2696C16.375 18.9161 16.2 18.4911 16.2 17.9946C16.2 17.4982 16.3768 17.075 16.7303 16.725C17.0838 16.375 17.5089 16.2 18.0053 16.2C18.5018 16.2 18.925 16.3767 19.275 16.7303C19.625 17.0838 19.8 17.5088 19.8 18.0053C19.8 18.5017 19.6232 18.925 19.2697 19.275C18.9161 19.625 18.4912 19.8 17.9947 19.8ZM28.1947 19.8C27.6982 19.8 27.275 19.6232 26.925 19.2696C26.575 18.9161 26.4 18.4911 26.4 17.9946C26.4 17.4982 26.5768 17.075 26.9303 16.725C27.2839 16.375 27.7089 16.2 28.2053 16.2C28.7018 16.2 29.125 16.3767 29.475 16.7303C29.825 17.0838 30 17.5088 30 18.0053C30 18.5017 29.8232 18.925 29.4697 19.275C29.1161 19.625 28.6912 19.8 28.1947 19.8Z" fill="white"/>
</svg>
