<svg width="20" height="20" viewBox="0 0 20 20" fill="none" xmlns="http://www.w3.org/2000/svg">
<path d="M1.66699 20V17.4792H18.3337V20H1.66699ZM3.37533 15.2708V12.5L11.1462 4.72916L13.917 7.49999L6.14616 15.2708H3.37533ZM4.62533 14.0208H5.56283L12.1253 7.45833L11.1878 6.52083L4.62533 13.0833V14.0208ZM14.8337 6.58333L12.0628 3.81249L13.8128 2.06249C13.9656 1.88194 14.1392 1.78819 14.3337 1.78124C14.5281 1.7743 14.7225 1.86805 14.917 2.06249L16.542 3.68749C16.7225 3.86805 16.8128 4.05902 16.8128 4.26041C16.8128 4.4618 16.7364 4.65277 16.5837 4.83333L14.8337 6.58333Z" fill="#D1D5DB"/>
</svg>
