 <svg xmlns="http://www.w3.org/2000/svg" width="20" height="20" viewBox="0 0 20 20" fill="none">
                                    <path d="M3.75 19.7501C3.41667 19.7501 3.125 19.6251 2.875 19.3751C2.625 19.1251 2.5 18.8334 2.5 18.5001V6.00008C2.5 5.66675 2.625 5.37508 2.875 5.12508C3.125 4.87508 3.41667 4.75008 3.75 4.75008H12.1875L10.9375 6.00008H3.75V18.5001H16.25V11.2501L17.5 10.0001V18.5001C17.5 18.8334 17.375 19.1251 17.125 19.3751C16.875 19.6251 16.5833 19.7501 16.25 19.7501H3.75ZM13.7917 4.91675L14.6875 5.79175L8.75 11.7084V13.5001H10.5208L16.4792 7.54175L17.3542 8.41675L11.0417 14.7501H7.5V11.2084L13.7917 4.91675ZM17.3542 8.41675L13.7917 4.91675L15.875 2.83341C16.1111 2.5973 16.4049 2.47925 16.7565 2.47925C17.108 2.47925 17.4045 2.60425 17.6458 2.85425L19.3958 4.62508C19.6319 4.87508 19.75 5.17003 19.75 5.50991C19.75 5.8498 19.625 6.13819 19.375 6.37508L17.3542 8.41675Z" fill="black" />
                                </svg>