<svg xmlns="http://www.w3.org/2000/svg" width="16" height="16" viewBox="0 0 16 16" fill="none">
                                        <g clip-path="url(#clip0_312_5017)">
                                            <path d="M0.5 1.16244C0.499943 0.989786 0.54459 0.820055 0.629595 0.669773C0.7146 0.519492 0.837068 0.393779 0.985076 0.304874C1.13308 0.215968 1.30159 0.166899 1.47419 0.162443C1.64679 0.157986 1.8176 0.198294 1.97 0.279443L14.838 7.11644C14.9982 7.20162 15.1323 7.32881 15.2258 7.48436C15.3192 7.63991 15.3686 7.81797 15.3686 7.99944C15.3686 8.18092 15.3192 8.35898 15.2258 8.51453C15.1323 8.67008 14.9982 8.79726 14.838 8.88244L1.969 15.7194C1.81656 15.8004 1.64576 15.8405 1.47322 15.8359C1.30068 15.8313 1.13228 15.7821 0.98439 15.6931C0.836501 15.6041 0.714165 15.4783 0.629283 15.328C0.5444 15.1777 0.499862 15.008 0.5 14.8354V10.3294C0.499983 10.0961 0.581543 9.87016 0.730561 9.69065C0.87958 9.51113 1.08668 9.38937 1.316 9.34644L8.5 7.99944L1.316 6.65244C1.08668 6.60951 0.87958 6.48775 0.730561 6.30824C0.581543 6.12872 0.499983 5.90275 0.5 5.66944V1.16244Z" fill="#100F0F" />
                                        </g>
                                        <defs>
                                            <clipPath id="clip0_312_5017">
                                                <rect width="16" height="16" fill="white" />
                                            </clipPath>
                                        </defs>
                                    </svg>